<?xml version="1.0" standalone="no"?><svg xmlns="http://www.w3.org/2000/svg" viewBox="0 0 1440 320"><path fill="#F8DAE2" fill-opacity="1" d="M0,224L34.3,202.7C68.6,181,137,139,206,144C274.3,149,343,203,411,202.7C480,203,549,149,617,106.7C685.7,64,754,32,823,69.3C891.4,107,960,213,1029,218.7C1097.1,224,1166,128,1234,128C1302.9,128,1371,224,1406,272L1440,320L1440,0L1405.7,0C1371.4,0,1303,0,1234,0C1165.7,0,1097,0,1029,0C960,0,891,0,823,0C754.3,0,686,0,617,0C548.6,0,480,0,411,0C342.9,0,274,0,206,0C137.1,0,69,0,34,0L0,0Z"></path></svg>