<?xml version="1.0" standalone="no"?><svg xmlns="http://www.w3.org/2000/svg" viewBox="0 0 1440 320"><path fill="#F8DAE2" fill-opacity="1" d="M0,192L21.8,176C43.6,160,87,128,131,101.3C174.5,75,218,53,262,80C305.5,107,349,181,393,192C436.4,203,480,149,524,160C567.3,171,611,245,655,234.7C698.2,224,742,128,785,80C829.1,32,873,32,916,64C960,96,1004,160,1047,192C1090.9,224,1135,224,1178,192C1221.8,160,1265,96,1309,69.3C1352.7,43,1396,53,1418,58.7L1440,64L1440,0L1418.2,0C1396.4,0,1353,0,1309,0C1265.5,0,1222,0,1178,0C1134.5,0,1091,0,1047,0C1003.6,0,960,0,916,0C872.7,0,829,0,785,0C741.8,0,698,0,655,0C610.9,0,567,0,524,0C480,0,436,0,393,0C349.1,0,305,0,262,0C218.2,0,175,0,131,0C87.3,0,44,0,22,0L0,0Z"></path></svg>